<?xml version="1.0" ?><svg enable-background="new 0 0 64 64" id="Layer_1" version="1.1" viewBox="0 0 64 64" xml:space="preserve" xmlns="http://www.w3.org/2000/svg" xmlns:xlink="http://www.w3.org/1999/xlink"><path d="M49.3,20.3c6.7,0,12.2,5.5,12.2,12.2c0,6.7-5.5,12.2-12.2,12.2c-4.8,0-9.1-2.8-11.1-7.2  c-0.4-0.9-1.3-1.5-2.3-1.5h-7.8c-1,0-1.9,0.6-2.3,1.5c-2,4.4-6.3,7.2-11.1,7.2C8,44.6,2.6,39.1,2.6,32.4c0-6.7,5.5-12.2,12.2-12.2  H49.3 M49.3,17.8H14.7c-8.1,0-14.7,6.6-14.7,14.7c0,8.1,6.6,14.7,14.7,14.7c5.9,0,11.1-3.5,13.4-8.6h7.8c2.3,5.1,7.4,8.6,13.4,8.6  c8.1,0,14.7-6.6,14.7-14.7C63.9,24.3,57.4,17.8,49.3,17.8L49.3,17.8z" fill="#20293B"/><circle cx="14.7" cy="32.4" fill="none" r="6.9" stroke="#20293B" stroke-linejoin="round" stroke-miterlimit="10" stroke-width="1.5"/><path d="M49.3,22.9c-5.2,0-9.5,4.3-9.5,9.5s4.3,9.5,9.5,9.5c5.2,0,9.5-4.3,9.5-9.5S54.5,22.9,49.3,22.9z M44.9,34.2  c-1,0-1.7-0.8-1.7-1.7s0.8-1.7,1.7-1.7s1.7,0.8,1.7,1.7S45.9,34.2,44.9,34.2z M49.3,38.5c-1,0-1.7-0.8-1.7-1.7s0.8-1.7,1.7-1.7  c1,0,1.7,0.8,1.7,1.7S50.2,38.5,49.3,38.5z M49.3,29.8c-1,0-1.7-0.8-1.7-1.7s0.8-1.7,1.7-1.7c1,0,1.7,0.8,1.7,1.7  S50.2,29.8,49.3,29.8z M53.6,34.2c-1,0-1.7-0.8-1.7-1.7s0.8-1.7,1.7-1.7s1.7,0.8,1.7,1.7S54.5,34.2,53.6,34.2z" fill="#20293B"/><polygon fill="#20293B" points="15.8,31.3 15.8,29 13.7,29 13.7,31.3 11.2,31.3 11.2,33.5 13.7,33.5 13.7,35.9 15.8,35.9 15.8,33.5   18.2,33.5 18.2,31.3 "/><path d="M32.2,33L32.2,33c-0.3-0.3-0.3-0.9,0-1.2l2.2-2.2c0.3-0.3,0.9-0.3,1.2,0v0c0.3,0.3,0.3,0.9,0,1.2L33.4,33  C33.1,33.4,32.5,33.4,32.2,33z" fill="#20293B"/><path d="M27.1,33L27.1,33c-0.3-0.3-0.3-0.9,0-1.2l2.2-2.2c0.3-0.3,0.9-0.3,1.2,0l0,0c0.3,0.3,0.3,0.9,0,1.2L28.3,33  C28,33.4,27.4,33.4,27.1,33z" fill="#20293B"/><path d="M21.6,16.9h-7.8c-1,0-1.7,0.8-1.7,1.7v0h11.2v0C23.4,17.7,22.6,16.9,21.6,16.9z" fill="#20293B"/><path d="M50.1,16.9h-7.8c-1,0-1.7,0.8-1.7,1.7v0h11.2v0C51.9,17.7,51.1,16.9,50.1,16.9z" fill="#20293B"/></svg>